<?xml version="1.0" standalone="no"?>
<!DOCTYPE svg PUBLIC "-//W3C//DTD SVG 20010904//EN"
 "http://www.w3.org/TR/2001/REC-SVG-20010904/DTD/svg10.dtd">
<svg version="1.0" xmlns="http://www.w3.org/2000/svg"
 width="402.000000pt" height="402.000000pt" viewBox="0 0 402.000000 402.000000"
 preserveAspectRatio="xMidYMid meet">
<metadata>
Created by potrace 1.14, written by Peter Selinger 2001-2017
</metadata>
<g transform="translate(0.000000,402.000000) scale(0.100000,-0.100000)"
fill="#000000" stroke="none">
<path d="M1172 3687 c-9 -11 -17 -22 -17 -26 0 -3 -4 -5 -10 -3 -5 1 -1 -5 10
-14 16 -14 17 -16 3 -11 -10 4 -18 2 -18 -3 0 -5 -9 -7 -21 -5 -17 4 -19 2 -8
-11 10 -12 9 -13 -6 -8 -15 6 -17 3 -13 -14 4 -15 2 -22 -8 -22 -8 0 -14 -5
-14 -11 0 -5 -4 -8 -8 -5 -14 9 -33 -11 -36 -38 -2 -14 2 -26 7 -26 7 0 7 -4
-1 -12 -16 -16 -15 -31 1 -22 8 5 8 2 -2 -9 -10 -13 -10 -17 -1 -17 10 0 10
-3 0 -15 -10 -12 -10 -15 1 -15 9 0 10 -3 4 -8 -12 -8 -14 -102 -2 -102 5 0 5
-5 1 -11 -10 -16 -11 -149 -1 -149 5 0 5 -5 1 -11 -11 -19 -11 -89 0 -82 6 4
5 -1 -3 -10 -11 -14 -11 -17 0 -17 10 0 10 -3 1 -12 -16 -16 -15 -31 1 -22 8
5 8 2 -2 -9 -10 -13 -10 -17 -1 -17 10 0 10 -3 0 -15 -10 -12 -10 -15 1 -15 9
0 10 -3 4 -8 -5 -4 -10 -14 -10 -22 0 -8 5 -18 10 -22 6 -5 4 -8 -5 -8 -13 0
-13 -1 0 -10 10 -6 11 -10 3 -10 -7 0 -13 -5 -13 -11 0 -5 6 -7 13 -3 9 6 9 4
0 -7 -17 -17 -17 -32 0 -23 9 5 9 4 0 -6 -10 -11 -9 -16 5 -27 11 -9 12 -12 3
-11 -7 2 -16 -3 -19 -11 -3 -10 0 -11 9 -5 12 7 12 5 0 -9 -10 -13 -10 -17 -1
-17 10 0 10 -3 0 -15 -10 -12 -10 -15 1 -15 9 0 10 -3 4 -8 -14 -10 -15 -123
-1 -115 6 4 5 -1 -3 -10 -11 -14 -11 -17 0 -17 10 0 10 -3 1 -12 -16 -16 -15
-31 1 -22 8 5 8 2 -2 -9 -10 -13 -10 -17 -1 -17 10 0 10 -3 0 -15 -10 -12 -10
-15 1 -15 9 0 10 -3 4 -8 -13 -9 -13 -102 -1 -102 6 0 5 -5 -1 -11 -8 -8 -8
-20 -2 -36 6 -16 5 -22 -1 -18 -6 3 -10 1 -10 -4 0 -6 5 -11 11 -11 8 0 8 -4
0 -14 -9 -11 -8 -18 4 -30 18 -18 29 -21 20 -6 -3 6 -1 10 4 10 6 0 11 -6 11
-14 0 -8 7 -17 16 -20 8 -3 13 -10 10 -15 -4 -5 0 -12 6 -14 9 -4 10 -6 1 -6
-7 -1 -10 -11 -7 -26 2 -14 0 -25 -6 -25 -5 0 -10 -7 -10 -16 0 -8 -4 -12 -10
-9 -5 3 -10 2 -10 -4 0 -6 -8 -7 -17 -4 -12 5 -15 2 -10 -10 3 -9 2 -17 -4
-17 -6 0 -7 -5 -4 -10 7 -11 -35 -31 -47 -23 -8 4 -12 -12 -9 -30 2 -15 -27
-37 -49 -37 -12 0 -19 -4 -16 -9 3 -5 -1 -14 -9 -21 -8 -7 -15 -21 -15 -32 0
-10 -5 -16 -10 -13 -6 4 -8 12 -4 18 3 7 -6 -1 -21 -18 -14 -16 -24 -38 -21
-48 3 -11 0 -15 -7 -10 -7 4 -18 8 -25 9 -10 2 -11 -1 -1 -12 10 -12 9 -13 -5
-8 -11 4 -16 1 -16 -10 0 -9 -3 -16 -7 -16 -13 0 -76 -60 -64 -60 9 0 9 -5 0
-21 -6 -12 -7 -19 -2 -16 6 4 9 -9 9 -28 -1 -19 -5 -35 -11 -35 -5 0 -3 -5 5
-10 8 -5 11 -10 5 -10 -5 0 -3 -5 5 -10 12 -8 12 -10 -5 -10 -15 0 -17 -3 -7
-9 8 -4 14 -12 14 -16 0 -4 -6 -12 -14 -16 -11 -7 -11 -9 1 -9 8 0 11 -6 7
-16 -4 -9 -1 -24 6 -32 8 -10 9 -13 2 -9 -7 4 -14 0 -18 -8 -3 -8 -1 -15 3
-15 5 0 12 -7 15 -16 3 -8 2 -13 -3 -10 -5 3 -12 -2 -15 -11 -4 -9 -2 -20 5
-23 8 -6 8 -13 0 -29 -9 -16 -9 -21 1 -21 9 0 9 -3 1 -11 -7 -7 -8 -21 -3 -40
5 -18 5 -27 -1 -24 -5 4 -9 1 -9 -4 0 -6 9 -11 19 -11 11 0 22 -6 24 -12 4
-10 6 -10 6 0 1 10 5 9 17 -3 9 -8 13 -22 10 -30 -3 -9 1 -15 10 -15 8 0 13
-4 10 -8 -3 -5 10 -9 29 -9 22 0 32 4 28 11 -3 6 0 5 8 -1 15 -14 43 -18 35
-5 -3 5 1 9 9 9 8 0 12 -4 9 -8 -5 -9 47 -6 63 4 6 4 15 2 19 -4 5 -8 3 -9 -6
-4 -9 5 -11 4 -6 -4 6 -9 11 -9 22 0 8 6 14 8 14 3 0 -4 5 -3 12 4 7 7 17 12
23 12 5 0 4 -4 -4 -9 -9 -6 6 -9 42 -8 30 1 59 5 63 10 4 4 12 7 18 7 6 0 4
-5 -4 -10 -12 -8 -10 -10 10 -7 14 1 30 6 37 10 6 4 15 2 19 -4 5 -8 3 -9 -6
-4 -9 5 -11 4 -6 -4 6 -9 11 -9 22 0 8 6 14 8 14 4 0 -4 8 -1 17 6 9 8 14 9
10 3 -7 -12 97 -14 109 -2 4 5 12 8 18 8 6 0 4 -5 -4 -10 -11 -8 -8 -10 15 -7
17 2 43 0 58 -4 21 -6 29 -4 34 7 4 12 8 12 20 -3 8 -10 12 -13 9 -7 -4 7 19
10 75 8 48 -2 89 1 102 8 21 10 21 10 7 -7 -14 -17 -13 -17 5 -8 11 6 44 9 73
7 30 -3 61 0 74 7 22 12 22 11 8 -6 -14 -17 -14 -18 8 -6 16 8 32 9 58 2 28
-8 36 -7 41 5 4 12 8 12 20 -3 8 -10 12 -12 8 -6 -4 9 5 11 35 7 27 -4 46 -1
57 8 10 8 14 8 10 1 -5 -8 1 -11 20 -9 16 1 40 -1 55 -5 21 -6 30 -3 38 9 5 9
10 12 10 5 0 -7 7 -10 17 -6 12 5 14 3 8 -7 -6 -10 -4 -11 6 -4 8 4 24 7 37 5
13 -1 30 3 39 11 11 8 14 9 10 1 -5 -8 1 -11 20 -9 16 1 40 -1 56 -5 15 -4 25
-4 22 1 -3 4 2 11 11 14 8 3 13 2 10 -3 -3 -5 1 -12 10 -15 8 -3 13 -2 9 3 -8
13 17 20 37 10 10 -6 19 -5 23 1 4 6 12 7 18 3 20 -12 41 -12 56 0 9 7 12 8 8
1 -4 -7 5 -11 24 -12 20 0 27 3 22 11 -3 7 4 3 17 -8 13 -11 20 -14 15 -6 -6
11 -4 13 8 8 9 -3 19 -2 22 3 4 6 12 10 18 10 8 0 8 -3 -1 -9 -10 -6 -7 -10
12 -13 15 -3 29 -1 33 5 4 6 1 7 -7 2 -9 -5 -11 -4 -6 4 4 6 13 8 19 4 20 -12
41 -12 56 0 9 7 12 8 8 1 -4 -7 5 -11 24 -12 20 0 27 3 22 11 -3 7 4 3 17 -8
13 -11 20 -14 15 -6 -6 11 -4 13 8 8 9 -3 19 -2 22 3 4 6 12 10 18 10 8 0 8
-3 -1 -9 -10 -6 -7 -10 12 -13 15 -3 29 -1 33 5 4 6 1 7 -7 2 -9 -5 -11 -4 -6
4 4 6 13 8 19 4 19 -12 46 -13 52 -3 3 6 12 10 18 10 8 0 8 -3 -1 -9 -10 -6
-7 -10 12 -13 16 -3 23 -1 19 5 -4 6 2 8 14 5 11 -3 28 -1 38 5 15 8 17 7 12
-9 -6 -15 -3 -14 13 5 11 12 17 27 14 32 -3 5 -1 9 5 9 6 0 7 8 4 18 -6 15 -5
15 10 3 11 -9 17 -10 17 -2 0 6 3 10 8 10 18 -3 32 2 32 12 0 5 -6 7 -12 3 -9
-5 -9 -2 1 9 13 16 9 21 -14 18 -5 -1 1 8 15 20 14 11 20 18 14 15 -17 -8 -25
19 -11 33 7 7 8 12 2 11 -21 -4 -27 1 -16 14 12 15 22 78 11 71 -4 -2 -7 2 -7
10 0 8 4 12 7 10 4 -3 6 10 5 28 -2 20 -8 31 -17 29 -7 -1 -4 5 7 13 17 14 18
17 5 25 -13 9 -13 10 0 10 12 0 12 2 2 9 -11 6 -10 11 3 25 9 9 12 16 6 16 -6
0 -9 21 -8 51 2 45 -1 53 -20 62 -13 6 -23 17 -24 26 0 14 -1 13 -7 -1 -6 -15
-9 -14 -19 7 -8 19 -8 23 0 18 8 -4 8 -2 0 9 -7 8 -9 19 -5 23 4 5 1 5 -5 1
-7 -4 -21 -9 -31 -11 -15 -2 -18 2 -16 21 1 13 -2 24 -8 24 -6 0 -8 7 -4 15 3
8 2 14 -2 14 -25 -4 -52 3 -47 11 3 6 1 10 -6 10 -7 0 -9 8 -6 21 5 18 2 20
-18 17 -17 -4 -25 0 -29 15 -2 10 -9 17 -14 14 -4 -4 -8 4 -8 16 1 15 -5 22
-16 21 -10 -1 -18 2 -18 7 0 5 -3 8 -7 8 -5 -1 -15 -1 -23 0 -13 1 -13 3 -1
10 18 12 6 42 -14 35 -8 -3 -15 -1 -15 5 0 6 -6 11 -14 11 -8 0 -18 5 -22 12
-5 7 -3 8 7 3 12 -8 12 -6 0 8 -11 14 -11 17 0 17 8 0 6 6 -7 16 -10 8 -13 12
-5 8 10 -5 13 -3 8 9 -3 9 0 18 9 21 8 3 14 11 14 18 0 9 -3 9 -11 -2 -9 -12
-10 -12 -5 3 3 10 6 22 6 25 0 4 4 1 9 -7 7 -10 13 -11 30 -2 11 7 21 17 21
24 0 7 -4 6 -10 -3 -6 -9 -10 -10 -10 -3 0 6 5 15 10 18 6 3 10 11 10 16 0 6
-6 7 -12 3 -10 -6 -10 -4 -2 7 12 16 17 62 5 55 -4 -3 -8 5 -8 17 -2 17 0 19
7 7 8 -12 10 -10 10 8 0 16 -4 21 -12 16 -9 -5 -9 -2 1 9 7 9 10 17 6 17 -4 0
-2 6 4 14 9 11 9 16 0 22 -8 5 -9 3 -4 -6 5 -9 4 -11 -4 -6 -9 6 -9 11 0 22 9
11 8 14 -2 14 -9 0 -10 3 -4 8 16 11 18 52 3 70 -7 9 -8 13 -2 9 7 -4 14 0 17
8 4 10 1 12 -10 8 -11 -4 -14 -3 -9 5 11 19 18 64 8 58 -4 -2 -9 4 -9 15 -1
10 3 19 8 19 6 0 7 -5 3 -12 -4 -7 -3 -8 4 -4 13 8 5 36 -10 36 -5 0 -6 5 -3
10 4 6 11 7 17 4 7 -4 7 0 1 12 -11 23 -11 54 1 73 6 10 5 12 -2 7 -7 -4 -12
-4 -13 1 0 4 -2 16 -4 26 -2 9 1 15 6 11 5 -3 6 -10 3 -16 -4 -7 -2 -8 4 -4
13 8 5 36 -10 36 -5 0 -6 5 -3 10 4 6 11 7 17 4 7 -4 7 0 0 12 -5 11 -8 31 -6
47 2 19 -1 25 -9 20 -7 -4 -6 1 2 10 12 15 11 20 -5 40 -13 14 -14 18 -3 9 14
-10 17 -9 22 7 4 15 1 18 -12 13 -14 -5 -14 -4 -2 11 9 12 10 17 2 17 -7 0 -9
5 -6 10 4 6 12 8 18 4 7 -3 3 2 -7 10 -11 9 -15 16 -9 16 15 0 14 80 -1 99 -8
11 -8 13 0 8 7 -4 14 0 18 8 3 8 1 17 -4 20 -10 6 -8 24 4 44 6 9 5 12 -1 8
-6 -4 -14 0 -17 9 -8 21 -8 24 5 24 5 0 7 -5 3 -12 -4 -7 -3 -8 4 -4 13 8 5
36 -10 36 -5 0 -6 5 -3 10 4 6 11 7 17 4 7 -4 7 0 1 12 -11 22 -11 54 0 71 4
6 2 15 -4 19 -8 5 -9 3 -4 -6 5 -9 4 -11 -4 -6 -9 6 -9 11 0 22 6 7 9 20 6 28
-3 7 -1 18 5 24 6 6 6 12 -3 17 -8 6 -10 4 -4 -5 6 -9 4 -11 -4 -5 -9 5 -10
10 -2 18 16 16 13 37 -4 37 -8 0 -15 5 -15 10 0 7 -7 7 -21 -1 -17 -8 -20 -8
-14 1 4 7 1 16 -6 21 -11 7 -11 9 -1 9 10 0 8 5 -4 18 -10 9 -25 17 -33 17 -9
0 -21 15 -27 34 -7 22 -13 29 -17 20 -3 -8 -6 -4 -6 10 -1 23 -2 24 -15 6 -13
-17 -14 -17 -23 -1 -9 16 -11 16 -16 3 -6 -17 -47 -12 -47 5 0 5 -7 2 -16 -7
-15 -15 -18 -15 -37 2 -11 10 -17 13 -14 7 10 -18 -31 -24 -48 -7 -8 8 -15 10
-15 5 0 -15 -28 -23 -36 -10 -4 6 -3 8 4 4 6 -3 13 -3 16 2 2 4 -6 8 -19 8
-13 0 -21 -5 -18 -11 2 -7 -5 -11 -19 -9 -13 1 -27 3 -31 3 -5 1 -6 5 -3 9 3
5 -1 9 -9 9 -8 0 -12 -4 -9 -8 9 -15 -22 -16 -40 0 -11 9 -16 11 -13 5 10 -18
-31 -24 -48 -7 -8 8 -15 10 -15 5 0 -15 -28 -23 -36 -10 -4 6 -3 8 4 4 6 -3
13 -3 16 2 9 15 -59 8 -74 -8 -8 -9 -12 -11 -7 -6 12 16 8 22 -15 23 -18 2
-20 0 -8 -7 12 -8 10 -10 -8 -10 -13 0 -21 4 -18 8 2 4 -6 8 -20 8 -14 0 -23
-5 -20 -11 3 -8 -4 -10 -20 -7 -13 2 -22 7 -20 11 3 4 -11 7 -29 7 -18 0 -31
-4 -29 -8 3 -4 -2 -8 -11 -8 -9 0 -14 4 -11 8 2 4 -6 8 -20 8 -14 0 -23 -5
-20 -11 3 -8 -4 -10 -20 -7 -13 2 -22 7 -20 11 3 4 -6 7 -20 7 -14 0 -23 -5
-20 -11 6 -16 -44 -11 -55 6 -5 8 -9 9 -9 3 0 -19 -39 -24 -55 -7 -8 8 -15 10
-15 5 0 -15 -28 -23 -36 -10 -4 6 -3 8 4 4 6 -3 13 -3 16 2 2 4 -6 8 -19 8
-13 0 -22 -3 -19 -7 8 -14 -37 -17 -51 -2 -8 8 -15 10 -15 5 0 -15 -28 -23
-36 -10 -4 6 -3 8 4 4 6 -3 13 -3 16 2 2 4 -11 8 -30 8 -19 0 -34 -3 -34 -7 0
-13 -29 -18 -36 -7 -4 6 -3 8 4 4 6 -3 13 -3 16 2 2 4 -6 8 -19 8 -15 0 -21
-5 -18 -13 4 -9 0 -11 -11 -7 -9 3 -14 9 -11 13 2 4 -2 8 -10 8 -8 0 -12 -4
-9 -9 3 -4 0 -8 -5 -8 -6 0 -11 5 -11 11 0 6 -7 3 -16 -6 -15 -15 -18 -15 -41
1 -14 9 -23 11 -19 6 11 -17 -18 -20 -37 -4 -16 14 -17 14 -12 0 5 -12 0 -15
-21 -12 -15 1 -31 9 -35 16 -7 10 -9 10 -9 1 0 -7 -12 -13 -26 -13 -14 0 -23
4 -20 8 10 17 -65 7 -82 -11z m25 -2 c0 -8 -4 -12 -9 -9 -5 3 -6 10 -3 15 9
13 12 11 12 -6z m36 -2 c-3 -7 -6 -13 -8 -13 -2 0 -5 6 -8 13 -3 8 1 14 8 14
7 0 11 -6 8 -14z m397 7 c0 -5 -5 -10 -11 -10 -5 0 -7 5 -4 10 3 6 8 10 11 10
2 0 4 -4 4 -10z m483 -7 c-3 -7 -6 -13 -8 -13 -2 0 -5 6 -8 13 -3 8 1 14 8 14
7 0 11 -6 8 -14z m197 7 c0 -5 -5 -10 -11 -10 -5 0 -7 5 -4 10 3 6 8 10 11 10
2 0 4 -4 4 -10z m-1400 -1804 c0 -3 -4 -8 -10 -11 -5 -3 -10 -1 -10 4 0 6 5
11 10 11 6 0 10 -2 10 -4z m-135 -146 c3 -6 -1 -7 -9 -4 -18 7 -21 14 -7 14 6
0 13 -4 16 -10z"/>
<path d="M1446 3698 c3 -5 10 -6 15 -3 13 9 11 12 -6 12 -8 0 -12 -4 -9 -9z"/>
<path d="M1706 3698 c3 -5 10 -6 15 -3 13 9 11 12 -6 12 -8 0 -12 -4 -9 -9z"/>
<path d="M2386 3698 c3 -5 10 -6 15 -3 13 9 11 12 -6 12 -8 0 -12 -4 -9 -9z"/>
<path d="M2626 3698 c3 -5 10 -6 15 -3 13 9 11 12 -6 12 -8 0 -12 -4 -9 -9z"/>
<path d="M3305 1360 c-3 -6 1 -7 9 -4 18 7 21 14 7 14 -6 0 -13 -4 -16 -10z"/>
<path d="M1360 1030 c-9 -6 -10 -10 -3 -10 6 0 15 5 18 10 8 12 4 12 -15 0z"/>
<path d="M1398 1028 c-5 -15 -45 -21 -53 -7 -5 7 -11 6 -21 -2 -11 -9 -14 -8
-15 2 0 8 -4 5 -9 -6 l-9 -20 0 20 c-1 17 -3 17 -11 5 -9 -13 -10 -13 -10 0 0
13 -1 13 -10 0 -6 -10 -10 -11 -10 -2 0 6 -5 12 -11 12 -5 0 -8 -4 -5 -8 3 -5
-1 -9 -9 -9 -8 0 -12 5 -8 10 3 5 -4 4 -16 -2 -16 -9 -21 -9 -21 1 0 9 -3 9
-10 -2 -5 -8 -10 -10 -10 -5 0 13 -105 12 -134 0 -12 -5 -17 -5 -13 1 3 5 -3
10 -13 10 -10 0 -16 -4 -14 -8 3 -4 0 -8 -5 -8 -6 0 -11 5 -11 11 0 8 -6 7
-17 -2 -9 -8 -14 -9 -10 -3 3 6 0 11 -8 11 -8 0 -11 -5 -8 -10 4 -6 -1 -8 -12
-4 -14 6 -16 3 -12 -13 3 -11 1 -18 -4 -14 -5 3 -9 -4 -9 -15 0 -11 -5 -23
-12 -27 -7 -4 -8 -3 -4 4 11 18 -10 14 -29 -4 -11 -12 -13 -20 -5 -29 8 -10 8
-15 -1 -21 -8 -4 -9 -3 -5 4 4 7 2 12 -3 12 -6 0 -11 -4 -11 -10 0 -5 -12 -10
-26 -10 -19 0 -25 -4 -20 -15 3 -8 0 -15 -6 -15 -7 0 -6 -5 2 -15 11 -13 10
-14 -5 -9 -12 5 -16 4 -11 -4 3 -6 1 -14 -5 -18 -7 -4 -9 -3 -5 4 4 6 -1 10
-13 9 -11 0 -17 -5 -14 -11 4 -5 -1 -7 -12 -2 -13 5 -15 3 -8 -6 11 -14 9 -46
-3 -56 -4 -4 -4 2 0 13 6 17 4 16 -20 -5 -15 -14 -24 -19 -20 -12 4 7 2 12 -6
12 -8 0 -14 -9 -14 -19 0 -11 4 -17 8 -15 4 3 8 3 8 0 0 -3 -19 -14 -41 -24
-26 -12 -37 -21 -28 -25 11 -4 11 -6 1 -6 -7 -1 -10 -5 -7 -11 3 -5 1 -10 -5
-10 -6 0 -9 -3 -6 -8 2 -4 -7 -12 -20 -19 -16 -7 -22 -8 -17 -1 3 6 1 8 -5 4
-6 -3 -13 -19 -17 -36 -4 -19 -11 -27 -20 -24 -22 9 -32 -27 -30 -106 3 -95 2
-93 20 -86 9 3 15 0 15 -9 0 -8 8 -19 17 -24 13 -7 14 -10 4 -11 -11 0 -11 -4
2 -18 19 -21 48 -25 41 -7 -3 6 2 12 10 12 8 0 12 -5 10 -11 -3 -7 12 -11 38
-12 24 0 37 1 31 3 -7 3 -13 8 -13 12 0 10 44 6 62 -5 16 -10 79 -13 73 -3 -3
4 4 9 16 12 15 4 18 2 10 -7 -7 -8 -5 -12 8 -12 10 0 17 5 15 11 -5 12 93 12
104 0 4 -5 2 -5 -5 -1 -6 3 -14 3 -17 -2 -2 -4 6 -8 19 -8 13 0 21 4 19 8 -3
4 2 8 11 8 9 0 14 -4 11 -9 -4 -5 1 -8 10 -7 8 1 20 9 25 17 7 11 9 10 10 -6
0 -19 1 -19 8 -1 6 17 8 17 14 4 6 -18 34 -18 45 -1 8 11 79 10 90 -2 4 -5 2
-5 -5 -1 -6 3 -14 3 -17 -2 -2 -4 6 -8 19 -8 13 0 21 4 19 8 -3 4 2 8 10 9 63
3 87 1 101 -11 13 -11 14 -10 8 6 -6 17 -5 18 11 4 20 -16 49 -23 40 -9 -3 5
3 9 13 10 10 0 30 2 44 3 18 1 25 -3 22 -11 -4 -9 0 -11 11 -7 9 3 14 9 12 13
-6 9 43 5 68 -5 12 -4 17 -4 13 2 -9 15 51 8 70 -8 9 -7 14 -8 10 -2 -11 19
21 25 38 8 8 -9 15 -11 15 -5 0 6 12 11 26 11 14 0 23 -4 20 -8 -3 -5 1 -9 9
-9 8 0 12 4 10 8 -3 3 4 9 16 12 15 4 18 2 10 -7 -7 -8 -5 -12 8 -12 13 0 17
5 13 16 -5 13 -4 13 12 0 20 -16 49 -23 40 -9 -3 5 1 9 10 9 8 0 17 -6 19 -12
3 -8 6 -5 6 5 1 10 6 15 11 12 6 -4 8 -10 6 -14 -3 -4 1 -8 9 -8 8 0 12 4 9 9
-8 13 69 15 100 3 12 -5 17 -5 13 1 -6 10 50 10 60 0 3 -3 14 -1 24 4 13 7 22
6 33 -6 9 -8 16 -11 16 -5 0 6 12 11 26 11 14 0 23 -4 20 -8 -3 -5 1 -9 9 -9
8 0 12 4 9 8 -9 15 22 16 39 1 15 -13 17 -13 12 -1 -4 11 5 14 49 13 30 -1 61
-6 68 -10 20 -13 49 -12 54 1 3 7 20 12 38 11 19 0 32 -6 29 -12 -5 -14 86
-12 95 3 8 12 36 12 48 0 4 -3 -4 -4 -16 -2 -12 2 -20 1 -16 -2 12 -12 58 -10
63 2 6 17 93 11 104 -7 7 -10 9 -10 9 0 0 6 12 12 26 12 14 0 23 -4 20 -8 -3
-5 1 -9 9 -9 8 0 12 4 10 8 -3 3 4 9 16 12 15 4 18 2 10 -7 -7 -8 -5 -12 8
-12 13 0 17 5 13 16 -5 13 -4 13 12 0 20 -15 49 -23 41 -10 -9 15 46 18 61 3
8 -8 14 -10 14 -5 0 15 28 23 36 10 4 -6 3 -8 -4 -4 -6 3 -13 3 -16 -2 -2 -4
11 -8 29 -8 18 0 31 4 29 8 -3 5 -10 6 -15 3 -5 -4 -9 -1 -9 5 0 8 7 9 18 5 9
-4 23 -10 31 -13 8 -3 12 -1 8 4 -6 10 50 10 60 0 3 -3 14 -1 24 4 13 7 22 6
33 -6 9 -8 16 -11 16 -5 0 6 12 11 26 11 14 0 23 -4 20 -8 -3 -5 1 -9 9 -9 8
0 12 4 9 8 -9 15 22 16 39 1 16 -15 17 -14 11 4 -7 17 -6 18 10 4 20 -15 49
-23 41 -10 -3 4 7 10 20 13 14 2 28 0 32 -6 3 -5 1 -7 -5 -3 -6 3 -13 2 -16
-3 -4 -5 2 -8 11 -7 9 2 19 8 21 14 2 7 8 10 13 7 5 -4 6 1 3 9 -4 9 -1 16 6
16 9 0 9 4 -1 17 -10 11 -10 14 -1 9 7 -4 12 -2 12 5 0 9 3 9 14 0 12 -10 17
-8 25 8 15 28 14 64 -1 55 -10 -6 -10 -4 0 7 6 7 12 35 12 61 0 37 -4 48 -16
48 -8 0 -12 5 -8 11 4 8 -1 9 -16 4 -15 -5 -20 -3 -16 3 3 6 2 13 -3 17 -6 3
-7 13 -4 22 4 11 3 14 -5 9 -7 -4 -12 -3 -12 2 0 6 -13 9 -29 8 -20 -1 -27 2
-24 11 3 7 10 10 17 6 6 -4 5 1 -3 10 -7 9 -10 17 -6 17 5 0 0 9 -9 19 -10 11
-24 17 -32 14 -8 -3 -16 5 -20 21 -3 14 -10 26 -16 26 -5 0 -6 5 -2 12 4 6 3
8 -4 4 -6 -3 -13 -2 -17 4 -4 6 -10 8 -15 5 -4 -3 -16 -2 -25 1 -11 5 -13 9
-5 14 6 3 8 14 4 24 -5 14 -9 14 -22 4 -12 -10 -14 -10 -8 0 7 11 -5 17 -28
13 -5 -1 -6 6 -2 15 9 22 -11 44 -40 44 -18 0 -22 4 -17 17 4 11 3 14 -5 9 -8
-5 -10 -2 -6 8 6 15 -7 25 -40 30 -18 3 -34 16 -19 16 8 0 8 7 0 24 -7 13 -15
22 -19 20 -5 -3 -8 0 -8 5 0 6 -5 11 -11 11 -5 0 -7 -6 -3 -12 6 -10 4 -10 -8
0 -13 10 -18 10 -24 1 -5 -8 -3 -9 6 -4 9 6 11 4 5 -5 -6 -10 -11 -9 -21 4 -9
13 -13 14 -17 4 -4 -10 -6 -10 -6 0 -1 6 -6 12 -12 12 -5 0 -8 -4 -5 -8 3 -5
-1 -9 -9 -9 -8 0 -12 5 -8 10 3 5 -4 4 -16 -2 -16 -9 -21 -9 -21 1 0 9 -3 9
-10 -2 -6 -9 -10 -10 -10 -3 0 7 -9 10 -22 7 -56 -11 -108 -12 -114 -3 -4 6
-11 6 -20 -2 -11 -9 -14 -8 -15 2 0 8 -4 5 -9 -6 l-9 -20 0 20 c-1 17 -3 17
-11 5 -9 -13 -10 -13 -10 0 0 13 -1 13 -10 0 -6 -10 -10 -11 -10 -2 0 6 -5 12
-11 12 -5 0 -8 -4 -5 -8 3 -5 -1 -9 -9 -9 -8 0 -12 5 -8 10 3 5 -4 4 -16 -2
-16 -9 -21 -9 -21 1 0 9 -3 9 -10 -2 -6 -9 -10 -10 -10 -3 0 7 -9 10 -22 7
-56 -11 -108 -12 -114 -3 -4 6 -11 6 -20 -2 -11 -9 -14 -8 -15 2 0 8 -4 5 -9
-6 l-9 -20 0 20 c-1 17 -3 17 -11 5 -9 -13 -10 -13 -10 0 0 13 -1 13 -10 0 -6
-10 -10 -11 -10 -2 0 6 -5 12 -11 12 -5 0 -8 -4 -5 -8 3 -5 -1 -9 -9 -9 -8 0
-12 5 -8 10 3 5 -4 4 -16 -2 -16 -9 -21 -9 -21 1 0 9 -3 9 -10 -2 -6 -9 -10
-10 -10 -3 0 7 -9 10 -22 7 -56 -11 -108 -12 -114 -3 -4 6 -11 6 -20 -2 -11
-9 -14 -8 -15 2 0 8 -4 5 -9 -6 l-9 -20 0 20 c-1 17 -3 17 -11 5 -9 -13 -10
-13 -10 0 0 13 -1 13 -10 0 -6 -10 -10 -11 -10 -2 0 6 -5 12 -11 12 -5 0 -8
-4 -5 -8 3 -5 -1 -9 -9 -9 -8 0 -12 5 -8 10 3 5 -4 4 -16 -2 -16 -9 -21 -9
-21 1 0 9 -3 9 -10 -2 -5 -8 -10 -10 -10 -5 0 6 -13 11 -29 10 -16 0 -27 -3
-24 -7 2 -5 -1 -8 -6 -8 -6 0 -11 5 -11 11 0 8 -6 7 -17 -2 -15 -12 -16 -12
-8 1 8 13 7 13 -9 1 -14 -12 -19 -12 -26 -2 -6 11 -9 11 -13 0 -4 -10 -6 -10
-6 -1 -1 6 -6 12 -12 12 -5 0 -7 -6 -3 -12 6 -10 4 -10 -8 0 -12 10 -18 10
-23 1 -6 -8 -10 -8 -15 2 -7 10 -11 10 -24 0 -9 -8 -16 -10 -16 -6 0 4 -7 2
-15 -5 -12 -10 -16 -9 -21 5 -5 13 -9 14 -15 3 -7 -10 -9 -10 -9 0 0 6 -5 12
-11 12 -5 0 -8 -4 -4 -9 3 -6 -4 -8 -17 -4 -34 8 -91 7 -112 -2 -12 -5 -17 -5
-13 1 3 5 -3 10 -13 10 -10 0 -16 -4 -14 -8 3 -4 0 -8 -5 -8 -6 0 -11 4 -11
10 0 6 -9 6 -25 0 -19 -7 -23 -6 -18 5 3 8 3 15 0 15 -3 0 -7 -5 -9 -12z
m-313 -18 c3 -5 1 -10 -4 -10 -6 0 -11 5 -11 10 0 6 2 10 4 10 3 0 8 -4 11
-10z m480 0 c3 -5 1 -10 -4 -10 -6 0 -11 5 -11 10 0 6 2 10 4 10 3 0 8 -4 11
-10z m1780 -250 c3 -5 1 -10 -4 -10 -6 0 -11 5 -11 10 0 6 2 10 4 10 3 0 8 -4
11 -10z m86 -77 c13 -16 12 -17 -3 -4 -10 7 -18 15 -18 17 0 8 8 3 21 -13z
m-2688 -366 c3 -8 -3 -13 -18 -13 -13 0 -21 4 -19 8 3 5 10 6 15 3 5 -4 9 -1
9 4 0 15 7 14 13 -2z m-129 -5 c3 -5 -1 -9 -9 -9 -8 0 -15 4 -15 9 0 4 4 8 9
8 6 0 12 -4 15 -8z m1940 -3 c3 -3 -6 -5 -19 -5 -14 0 -25 4 -25 8 0 8 36 6
44 -3z"/>
<path d="M2160 1030 c-9 -6 -10 -10 -3 -10 6 0 15 5 18 10 8 12 4 12 -15 0z"/>
<path d="M2480 1030 c-9 -6 -10 -10 -3 -10 6 0 15 5 18 10 8 12 4 12 -15 0z"/>
<path d="M2800 1030 c-9 -6 -10 -10 -3 -10 6 0 15 5 18 10 8 12 4 12 -15 0z"/>
<path d="M835 300 c-3 -5 -1 -10 4 -10 6 0 11 5 11 10 0 6 -2 10 -4 10 -3 0
-8 -4 -11 -10z"/>
<path d="M1084 302 c4 -3 14 -7 22 -8 9 -1 13 0 10 4 -4 3 -14 7 -22 8 -9 1
-13 0 -10 -4z"/>
<path d="M1195 300 c-3 -5 -1 -10 4 -10 6 0 11 5 11 10 0 6 -2 10 -4 10 -3 0
-8 -4 -11 -10z"/>
<path d="M1376 302 c-3 -5 1 -9 9 -9 8 0 12 4 9 9 -3 4 -7 8 -9 8 -2 0 -6 -4
-9 -8z"/>
<path d="M1915 299 c-3 -4 2 -6 10 -5 21 3 28 13 10 13 -9 0 -18 -4 -20 -8z"/>
<path d="M2096 302 c-3 -5 1 -9 9 -9 8 0 12 4 9 9 -3 4 -7 8 -9 8 -2 0 -6 -4
-9 -8z"/>
<path d="M2275 300 c-3 -5 -1 -10 4 -10 6 0 11 5 11 10 0 6 -2 10 -4 10 -3 0
-8 -4 -11 -10z"/>
<path d="M2336 302 c-3 -5 1 -9 9 -9 8 0 12 4 9 9 -3 4 -7 8 -9 8 -2 0 -6 -4
-9 -8z"/>
<path d="M2444 302 c4 -3 14 -7 22 -8 9 -1 13 0 10 4 -4 3 -14 7 -22 8 -9 1
-13 0 -10 -4z"/>
<path d="M2684 303 c4 -4 16 -8 28 -10 28 -4 18 6 -12 12 -12 2 -20 1 -16 -2z"/>
<path d="M2976 302 c-3 -5 1 -9 9 -9 8 0 12 4 9 9 -3 4 -7 8 -9 8 -2 0 -6 -4
-9 -8z"/>
<path d="M3216 302 c-3 -5 1 -9 9 -9 8 0 12 4 9 9 -3 4 -7 8 -9 8 -2 0 -6 -4
-9 -8z"/>
</g>
</svg>
